<svg xmlns="http://www.w3.org/2000/svg" width="512" height="512" id="grinder">
  <g fill="none" fill-rule="evenodd">
    <path fill="#B4814A" d="M452.78 499.795H39.978V483c0-10.43 8.46-18.885 18.895-18.885h375.01c10.436 0 18.895 8.455 18.895 18.885v16.794Z"></path>
    <path fill="#010202" d="M433.887 464.118H382.66c10.436 0 18.895 8.456 18.895 18.886v16.794h51.227v-16.794c0-10.43-8.46-18.886-18.895-18.886" opacity=".15"></path>
    <path fill="#2E2E30" d="M50.954 488.822h390.847V483c0-4.36-3.55-7.907-7.919-7.907H58.872c-4.368 0-7.918 3.547-7.918 7.907v5.822Zm401.824 21.943h-412.8c-6.06 0-10.978-4.916-10.978-10.972V483c0-16.458 13.4-29.85 29.873-29.85h375.01c16.473 0 29.872 13.392 29.872 29.85v16.793c0 6.056-4.918 10.972-10.977 10.972Z"></path>
    <path fill="#B4814A" d="M452.78 299.24H39.978v-9.289c0-14.577 11.818-26.39 26.396-26.39h360.008c14.578 0 26.396 11.813 26.396 26.39v9.29Z"></path>
    <path fill="#010202" d="M426.381 263.564h-51.227c14.578 0 26.397 11.813 26.397 26.383v9.297h51.227v-9.297c0-14.57-11.819-26.383-26.397-26.383" opacity=".15"></path>
    <path fill="#2E2E30" d="M51.047 288.272h390.664c-.835-7.716-7.392-13.736-15.332-13.736h-360c-7.94 0-14.497 6.02-15.332 13.736m401.736 21.943H39.975c-6.06 0-10.977-4.915-10.977-10.971v-9.297c0-20.597 16.766-37.354 37.38-37.354H426.38c20.608 0 37.381 16.757 37.381 37.354v9.297c0 6.056-4.918 10.97-10.977 10.97"></path>
    <path fill="#B4814A" d="M58.873 466.499H432.17V299.214H58.873z"></path>
    <path fill="#010202" d="M380.943 466.499h45.943V299.214h-45.943z" opacity=".15"></path>
    <path fill="#2E2E30" d="M69.85 453.344h351.343V309.899H69.85v143.445ZM432.17 475H58.873c-6.06 0-10.978-4.851-10.978-10.828V299.07c0-5.977 4.918-10.828 10.978-10.828H432.17c6.06 0 10.977 4.851 10.977 10.828v165.102c0 5.977-4.918 10.828-10.977 10.828Z"></path>
    <path fill="#F8E6C4" d="M104.091 432.611h284.573v-99.51H104.09z"></path>
    <path fill="#010202" d="M344.755 432.611h43.909v-99.51h-43.909z" opacity=".15"></path>
    <path fill="#2E2E30" d="M115.076 421.64h262.618v-77.568H115.076v77.568Zm273.588 21.943H104.099c-6.06 0-10.978-4.908-10.978-10.972v-99.51c0-6.057 4.918-10.972 10.978-10.972h284.565c6.066 0 10.977 4.915 10.977 10.972v99.51c0 6.064-4.91 10.972-10.977 10.972Z"></path>
    <path fill="#FBAE3A" d="M266.74 382.858c0 11.242-9.118 20.349-20.359 20.349-11.248 0-20.359-9.107-20.359-20.349s9.111-20.348 20.36-20.348c11.24 0 20.358 9.106 20.358 20.348"></path>
    <path fill="#2E2E30" d="M246.378 373.48c-5.174 0-9.382 4.205-9.382 9.376 0 5.171 4.208 9.377 9.382 9.377 5.174 0 9.382-4.206 9.382-9.377s-4.208-9.377-9.382-9.377m0 40.697c-17.278 0-31.336-14.044-31.336-31.32 0-17.269 14.058-31.32 31.336-31.32s31.336 14.051 31.336 31.32c0 17.276-14.058 31.32-31.336 31.32"></path>
    <path fill="#FBAE3A" d="M245.52 262.115c48.154 0 87.189-39.014 87.189-87.142H158.332c0 48.128 39.035 87.142 87.189 87.142"></path>
    <path fill="#010202" d="M281.485 174.97c0 39.22-25.928 72.375-61.575 83.31a87.103 87.103 0 0 0 25.613 3.833c48.154 0 87.189-39.015 87.189-87.143h-51.227Z" opacity=".15"></path>
    <path fill="#2E2E30" d="M170.096 185.943c5.335 36.82 37.124 65.2 75.427 65.2 38.296 0 70.086-28.38 75.421-65.2H170.096Zm75.427 87.142c-54.132 0-98.165-44.017-98.165-98.113 0-6.057 4.91-10.972 10.977-10.972h174.377c6.059 0 10.977 4.915 10.977 10.972 0 54.096-44.04 98.113-98.166 98.113Z"></path>
    <path fill="#FBAE3A" d="M338.128 174.97H152.914c-10.267 0-18.661-8.39-18.661-18.651 0-10.255 8.394-18.644 18.661-18.644h185.214c10.26 0 18.662 8.39 18.662 18.644 0 10.262-8.402 18.651-18.662 18.651"></path>
    <path fill="#010202" d="M338.128 137.672h-51.226c10.26 0 18.66 8.39 18.66 18.652 0 10.254-8.4 18.644-18.66 18.644h51.226c10.26 0 18.662-8.39 18.662-18.644 0-10.262-8.402-18.652-18.662-18.652" opacity=".15"></path>
    <path fill="#2E2E30" d="M152.915 148.643c-4.164 0-7.684 3.511-7.684 7.68 0 4.162 3.52 7.68 7.684 7.68h185.214c4.164 0 7.677-3.518 7.677-7.68 0-4.169-3.513-7.68-7.677-7.68H152.915Zm185.214 37.303H152.915c-16.342 0-29.639-13.29-29.639-29.623 0-16.34 13.297-29.623 29.639-29.623h185.214c16.342 0 29.631 13.283 29.631 29.623 0 16.333-13.29 29.623-29.63 29.623Z"></path>
    <path fill="#2E2E30" d="M245.52 143.222c-6.059 0-10.977-4.915-10.977-10.972v-13.158c0-19.632 15.983-35.606 35.618-35.606h156.87c8.146 0 14.769-6.62 14.769-14.768 0-6.056 4.918-10.971 10.977-10.971 6.06 0 10.977 4.915 10.977 10.971 0 20.246-16.473 36.71-36.722 36.71H270.16c-7.53 0-13.663 6.13-13.663 13.664v13.158c0 6.057-4.918 10.972-10.977 10.972"></path>
    <path fill="#513A2B" d="M449.105 86.854c-10.568 0-19.21-8.638-19.21-19.2V30.17c0-10.562 8.642-19.2 19.21-19.2 10.567 0 19.21 8.638 19.21 19.2v37.485c0 10.562-8.643 19.2-19.21 19.2"></path>
    <path fill="#2E2E30" d="M449.106 21.943c-4.537 0-8.233 3.694-8.233 8.228v37.486c0 4.535 3.696 8.229 8.233 8.229 4.457 0 8.233-3.774 8.233-8.229V30.171c0-4.534-3.695-8.228-8.233-8.228m0 75.886c-16.641 0-30.187-13.54-30.187-30.172V30.171C418.92 13.54 432.465 0 449.106 0c16.642 0 30.188 13.539 30.188 30.171v37.486c0 16.633-13.546 30.172-30.188 30.172"></path>
  </g>
</svg>
